<svg width="21" height="22" viewBox="0 0 21 22" fill="none" xmlns="http://www.w3.org/2000/svg">
<path d="M8.35742 4.26367H12.3574C12.3574 3.1591 11.462 2.26367 10.3574 2.26367C9.25282 2.26367 8.35742 3.1591 8.35742 4.26367ZM6.85742 4.26367C6.85742 2.33067 8.42442 0.763672 10.3574 0.763672C12.2904 0.763672 13.8574 2.33067 13.8574 4.26367H19.6074C20.0216 4.26367 20.3574 4.59946 20.3574 5.01367C20.3574 5.42788 20.0216 5.76367 19.6074 5.76367H18.2883L17.1163 17.8749C16.9303 19.7971 15.3149 21.2637 13.3837 21.2637H7.33111C5.39996 21.2637 3.78457 19.7971 3.59855 17.8749L2.4265 5.76367H1.10742C0.693212 5.76367 0.357422 5.42788 0.357422 5.01367C0.357422 4.59946 0.693212 4.26367 1.10742 4.26367H6.85742ZM8.85742 9.01367C8.85742 8.59946 8.52162 8.26367 8.10742 8.26367C7.69321 8.26367 7.35742 8.59946 7.35742 9.01367V16.5137C7.35742 16.9279 7.69321 17.2637 8.10742 17.2637C8.52162 17.2637 8.85742 16.9279 8.85742 16.5137V9.01367ZM12.6074 8.26367C13.0216 8.26367 13.3574 8.59946 13.3574 9.01367V16.5137C13.3574 16.9279 13.0216 17.2637 12.6074 17.2637C12.1932 17.2637 11.8574 16.9279 11.8574 16.5137V9.01367C11.8574 8.59946 12.1932 8.26367 12.6074 8.26367ZM5.09158 17.7304C5.20319 18.8837 6.17242 19.7637 7.33111 19.7637H13.3837C14.5424 19.7637 15.5116 18.8837 15.6232 17.7304L16.7813 5.76367H3.9335L5.09158 17.7304Z" fill="#657372"/>
</svg>
