<svg width="12" height="17" viewBox="0 0 12 17" fill="none" xmlns="http://www.w3.org/2000/svg">
<path d="M6.00652 0.270522L6.10832 0.263672C6.48802 0.263672 6.80182 0.545822 6.85142 0.911902L6.85832 1.01367L6.85742 13.7097L10.0768 10.4885C10.343 10.2222 10.7597 10.1978 11.0534 10.4155L11.1375 10.4881C11.4039 10.7542 11.4283 11.1709 11.2105 11.4646L11.138 11.5488L6.64172 16.0488C6.37562 16.3151 5.95892 16.3395 5.66522 16.1218L5.58112 16.0492L1.07731 11.5492C0.7843 11.2564 0.784099 10.7816 1.07687 10.4885C1.34302 10.2222 1.75968 10.1978 2.05338 10.4155L2.13753 10.4881L5.35742 13.7057L5.35832 1.01367C5.35832 0.633972 5.64042 0.320182 6.00652 0.270522Z" fill="#657372"/>
</svg>
