<svg width="24" height="24" viewBox="0 0 24 24" fill="none" xmlns="http://www.w3.org/2000/svg">
<path d="M4.8125 0.75H19.1875C21.3538 0.75 23.124 2.44556 23.2436 4.58197L23.25 4.8125V19.1875C23.25 21.3538 21.5544 23.124 19.418 23.2436L19.1875 23.25H4.8125C2.64621 23.25 0.875938 21.5544 0.756425 19.418L0.75 19.1875V4.8125C0.75 2.64621 2.44556 0.875938 4.58197 0.756425L4.8125 0.75ZM2.625 15.125V19.1875C2.625 20.3353 3.50889 21.2765 4.63309 21.3678L4.8125 21.375H19.1875C20.3353 21.375 21.2765 20.4911 21.3678 19.3669L21.375 19.1875V15.125H16.5938C16.1755 17.1854 14.4059 18.755 12.2504 18.8684L12 18.875C9.81625 18.875 7.98123 17.3816 7.46046 15.3605L7.40626 15.125H2.625ZM19.1875 2.625H4.8125C3.66479 2.625 2.72351 3.50889 2.63225 4.63309L2.625 4.8125V13.25H8.25C8.72463 13.25 9.11686 13.6027 9.17894 14.0603L9.1875 14.1875C9.1875 15.7408 10.4467 17 12 17C13.4886 17 14.707 15.8435 14.806 14.38L14.8125 14.1875C14.8125 13.7129 15.1652 13.3206 15.6228 13.2585L15.75 13.25H21.375V4.8125C21.375 3.66479 20.4911 2.72351 19.3669 2.63225L19.1875 2.625Z" fill="#657372"/>
</svg>
