<svg width="26" height="26" viewBox="0 0 26 26" fill="none" xmlns="http://www.w3.org/2000/svg">
<path d="M13 0.5C19.9037 0.5 25.5 6.0975 25.5 13C25.5 19.9025 19.9037 25.5 13 25.5C6.09625 25.5 0.5 19.9025 0.5 13C0.5 6.0975 6.09625 0.5 13 0.5ZM13 2.58375C7.25625 2.58375 2.58375 7.25625 2.58375 13C2.58375 18.7437 7.25625 23.4163 13 23.4163C18.7437 23.4163 23.4163 18.7437 23.4163 13C23.4163 7.25625 18.7437 2.58375 13 2.58375ZM13 17.375C13.6904 17.375 14.25 17.9346 14.25 18.625C14.25 19.3154 13.6904 19.875 13 19.875C12.3096 19.875 11.75 19.3154 11.75 18.625C11.75 17.9346 12.3096 17.375 13 17.375ZM13 6.4375C14.8985 6.4375 16.4375 7.97652 16.4375 9.875C16.4375 11.1385 16.0656 11.8425 15.1236 12.8232L14.9129 13.0379C14.1355 13.8153 13.9375 14.1454 13.9375 14.875C13.9375 15.3927 13.5177 15.8125 13 15.8125C12.4823 15.8125 12.0625 15.3927 12.0625 14.875C12.0625 13.6115 12.4344 12.9075 13.3764 11.9268L13.5871 11.7121C14.3645 10.9347 14.5625 10.6046 14.5625 9.875C14.5625 9.01205 13.863 8.3125 13 8.3125C12.191 8.3125 11.5256 8.92734 11.4456 9.71524L11.4375 9.875C11.4375 10.3928 11.0177 10.8125 10.5 10.8125C9.98224 10.8125 9.5625 10.3928 9.5625 9.875C9.5625 7.97652 11.1015 6.4375 13 6.4375Z" fill="#657372"/>
</svg>
