<svg width="22" height="24" viewBox="0 0 22 24" fill="none" xmlns="http://www.w3.org/2000/svg">
<path d="M10.6195 0.75C15.4113 0.75 19.3238 4.43525 19.4884 9.11202L19.4933 9.40149V14.1275L21.1261 17.7681C21.2079 17.9502 21.25 18.1469 21.25 18.3458C21.25 19.142 20.5879 19.7877 19.771 19.7877L14.1691 19.7894C14.1691 21.7006 12.5799 23.25 10.6195 23.25C8.72917 23.25 7.184 21.8092 7.07603 19.9927L7.06948 19.7868L1.47935 19.7877C1.27663 19.7877 1.07607 19.747 0.89012 19.6683C0.140933 19.3509 -0.202602 18.5017 0.122819 17.7713L1.74572 14.1286V9.40137C1.74643 4.60869 5.71183 0.75 10.6195 0.75ZM12.3938 19.7868L8.84476 19.7894C8.84476 20.745 9.63938 21.5197 10.6195 21.5197C11.542 21.5197 12.3002 20.8335 12.3861 19.956L12.3938 19.7868ZM10.6195 2.4803C6.69121 2.4803 3.52105 5.56514 3.52048 9.40149V14.4881L1.93032 18.0574H19.3188L17.7186 14.4893L17.7187 9.41632L17.7143 9.15655C17.5829 5.42663 14.4549 2.4803 10.6195 2.4803Z" fill="#657372"/>
</svg>
